<?xml version="1.0" encoding="UTF-8" standalone="no"?>
<svg xmlns:cc="http://creativecommons.org/ns#" xmlns:dc="http://purl.org/dc/elements/1.1/"
    xmlns:rdf="http://www.w3.org/1999/02/22-rdf-syntax-ns#" height="1011.2533" id="svg2" version="1.1"
    viewBox="0 0 1204.7467 1011.2533" width="1204.7467" xmlns="http://www.w3.org/2000/svg" xml:space="preserve"><metadata
     id="metadata8"><rdf:RDF><cc:Work
         rdf:about=""><dc:format>image/svg+xml</dc:format><dc:type
    rdf:resource="http://purl.org/dc/dcmitype/StillImage" /></cc:Work></rdf:RDF></metadata>
    <defs id="defs6"><clipPath
       clipPathUnits="userSpaceOnUse"
       id="clipPath22"><path
         d="M 0,0 H 9035.55 V 1114.39 H 0 Z"
         id="path20" /></clipPath>
        <clipPath clipPathUnits="userSpaceOnUse" id="clipPath32"><path
         d="M 4517.78,0.0117188 C 2022.68,0.0117188 0,249.469 0,557.191 c 0,307.727 2022.68,557.199 4517.78,557.199 2495.1,0 4517.77,-249.472 4517.77,-557.199 C 9035.55,249.469 7012.87,0.0117188 4517.78,0.0117188"
         id="path30" /></clipPath>
        <radialGradient cx="0" cy="0"
            fx="0"
            fy="0" gradientTransform="matrix(4518.39,0,0,-557.117,4517.78,557.19)" gradientUnits="userSpaceOnUse" id="radialGradient40" r="1" spreadMethod="pad"><stop
         style="stop-opacity:1;stop-color:#767a7d"
         id="stop34"
         offset="0" />
            <stop style="stop-opacity:1;stop-color:#ffffff" id="stop36" offset="0.923469" />
            <stop style="stop-opacity:1;stop-color:#ffffff" id="stop38" offset="1" /></radialGradient></defs>
    <g id="g10" transform="matrix(1.3333333,0,0,-1.3333333,0,1011.2533)"><g
       id="g12"
       transform="scale(0.1)"><path
         style="fill:#ffffff;fill-opacity:1;fill-rule:nonzero;stroke:none"
         d="m 4536.22,1114.39 h -36.88 c 6.08,0 12.35,0 18.44,0 6.09,0 12.35,0 18.44,0"
         id="path14" /><g
        id="g16"><g
           clip-path="url(#clipPath22)"
           id="g18"><path
             style="fill:#ffffff;fill-opacity:1;fill-rule:nonzero;stroke:none"
             d="m 9035.55,557.191 c 0,307.727 -2022.67,557.199 -4517.77,557.199 C 2022.68,1114.39 0,864.918 0,557.191 v 0 0 C 0,864.18 2012.64,1113.17 4499.34,1114.39 h 36.88 c 2486.69,-1.22 4499.33,-250.21 4499.33,-557.199 v 0"
             id="path24" /></g></g><g
        id="g26"><g
           clip-path="url(#clipPath32)"
           id="g28"><path
             style="fill:url(#radialGradient40);fill-opacity:1;fill-rule:nonzero;stroke:none"
             d="M 4517.78,0.0117188 C 2022.68,0.0117188 0,249.469 0,557.191 c 0,307.727 2022.68,557.199 4517.78,557.199 2495.1,0 4517.77,-249.472 4517.77,-557.199 C 9035.55,249.469 7012.87,0.0117188 4517.78,0.0117188"
             id="path42" /></g></g><path
        style="fill:#100f0d;fill-opacity:1;fill-rule:nonzero;stroke:none" d="M 4090.37,4349.82 3843.3,4102.76 c -14.62,-14.62 -38.31,-14.62 -52.92,0 l -155.77,155.77 c -14.62,14.61 -14.62,38.3 0,52.92 l 247.06,247.07 c 14.62,14.6 38.31,14.6 52.92,0 l 155.78,-155.78 c 14.61,-14.61 14.61,-38.3 0,-52.92 z m -348.82,-348.81 -247.07,-247.07 c -14.61,-14.61 -38.3,-14.61 -52.92,0 l -155.76,155.77 c -14.62,14.62 -14.62,38.31 0,52.92 l 247.07,247.07 c 14.61,14.61 38.3,14.61 52.91,0 l 155.77,-155.77 c 14.61,-14.61 14.61,-38.31 0,-52.92 z M 3392.74,3652.2 3145.67,3405.13 c -14.62,-14.62 -38.31,-14.62 -52.92,0 l -155.77,155.77 c -14.61,14.61 -14.61,38.3 0,52.91 l 247.07,247.07 c 14.61,14.62 38.31,14.62 52.92,0 l 155.77,-155.76 c 14.61,-14.62 14.61,-38.31 0,-52.92 z m -348.81,-348.82 -247.07,-247.07 c -14.62,-14.61 -38.31,-14.61 -52.92,0 l -155.77,155.77 c -14.62,14.61 -14.62,38.32 0,52.92 l 247.07,247.07 c 14.61,14.61 38.3,14.61 52.91,0 l 155.78,-155.77 c 14.6,-14.61 14.6,-38.3 0,-52.92 z m -552.17,5.11 -155.77,155.77 c -14.61,14.61 -14.61,38.3 0,52.92 l 247.07,247.07 c 14.61,14.61 38.31,14.61 52.92,0 l 155.77,-155.77 c 14.61,-14.62 14.61,-38.31 0,-52.92 l -247.07,-247.07 c -14.62,-14.61 -38.31,-14.61 -52.92,0 z m -252.18,252.18 -155.77,155.77 c -14.61,14.61 -14.61,38.3 0,52.92 l 247.07,247.07 c 14.62,14.61 38.31,14.61 52.92,0 l 155.77,-155.77 c 14.61,-14.62 14.61,-38.31 0,-52.92 L 2292.5,3560.67 c -14.61,-14.61 -38.3,-14.61 -52.92,0 z m -252.17,252.18 -155.77,155.76 c -14.61,14.62 -14.61,38.31 0,52.92 l 247.07,247.07 c 14.61,14.61 38.31,14.61 52.92,0 l 155.77,-155.77 c 14.61,-14.61 14.61,-38.3 0,-52.92 l -247.07,-247.06 c -14.62,-14.62 -38.31,-14.62 -52.92,0 z m 193.04,557.5 247.07,247.07 c 14.61,14.61 38.3,14.61 52.92,0 l 155.77,-155.77 c 14.61,-14.62 14.61,-38.31 0,-52.92 l -247.07,-247.07 c -14.61,-14.61 -38.31,-14.61 -52.92,0 l -155.77,155.77 c -14.61,14.61 -14.61,38.3 0,52.92 z m 348.82,348.81 247.06,247.07 c 14.62,14.61 38.31,14.61 52.92,0 l 155.77,-155.77 c 14.61,-14.62 14.61,-38.31 0,-52.92 l -247.07,-247.07 c -14.61,-14.61 -38.3,-14.61 -52.92,0 l -155.76,155.77 c -14.62,14.61 -14.62,38.31 0,52.92 z m 348.81,348.81 247.07,247.07 c 14.61,14.61 38.3,14.61 52.92,0 l 155.77,-155.77 c 14.61,-14.61 14.61,-38.3 0,-52.91 l -247.07,-247.07 c -14.62,-14.62 -38.31,-14.62 -52.92,0 l -155.77,155.76 c -14.61,14.62 -14.61,38.31 0,52.92 z m 552.16,-5.1 155.77,-155.78 c 14.61,-14.6 14.61,-38.3 0,-52.91 l -247.07,-247.07 c -14.61,-14.62 -38.3,-14.62 -52.91,0 l -155.78,155.77 c -14.61,14.61 -14.61,38.31 0,52.92 l 247.07,247.07 c 14.62,14.61 38.31,14.61 52.92,0 z m -396.62,-900.98 c -14.62,14.61 -14.62,38.31 0,52.91 l 247.07,247.07 c 14.61,14.62 38.3,14.62 52.92,0 l 155.76,-155.76 c 14.62,-14.62 14.62,-38.31 0,-52.92 L 3242.3,4006.12 c -14.61,-14.61 -38.3,-14.61 -52.91,0 z m -348.82,-295.9 247.07,247.07 c 14.62,14.62 38.31,14.62 52.92,0 l 155.77,-155.77 c 14.62,-14.61 14.62,-38.3 0,-52.92 l -247.07,-247.06 c -14.61,-14.62 -38.3,-14.62 -52.91,0 l -155.78,155.76 c -14.61,14.62 -14.61,38.31 0,52.92 z m 96.64,600.99 247.07,247.07 c 14.61,14.62 38.31,14.62 52.92,0 l 155.77,-155.76 c 14.61,-14.62 14.61,-38.31 0,-52.92 L 2990.13,4258.3 c -14.61,-14.62 -38.3,-14.62 -52.92,0 l -155.77,155.77 c -14.61,14.61 -14.61,38.3 0,52.91 z m 106.94,-257.51 c 14.62,-14.61 14.62,-38.3 0,-52.92 l -247.06,-247.07 c -14.62,-14.61 -38.31,-14.61 -52.92,0 l -155.77,155.77 c -14.61,14.61 -14.61,38.3 0,52.92 l 247.07,247.07 c 14.61,14.61 38.3,14.61 52.92,0 z m 794.04,601.22 155.77,-155.77 c 14.61,-14.61 14.61,-38.3 0,-52.92 l -247.07,-247.07 c -14.62,-14.61 -38.31,-14.61 -52.92,0 l -155.77,155.77 c -14.61,14.62 -14.61,38.31 0,52.92 l 247.07,247.07 c 14.62,14.61 38.31,14.61 52.92,0 z M 3265.02,5402 c -62.53,62.54 -164.29,62.54 -226.83,0 L 1744.68,4108.49 c -62.54,-62.54 -62.54,-164.3 0,-226.84 l 912.3,-912.29 c 62.54,-62.54 164.29,-62.54 226.83,0 l 1293.51,1293.51 c 62.54,62.53 62.54,164.29 0,226.83 l -912.3,912.3"
        id="path44" /><path
        style="fill:#100f0d;fill-opacity:1;fill-rule:nonzero;stroke:none" d="m 3967.18,6157.07 247.07,247.07 c 14.61,14.61 38.3,14.61 52.91,0 l 155.77,-155.77 c 14.61,-14.62 14.61,-38.31 0,-52.92 l -247.07,-247.07 c -14.61,-14.61 -38.3,-14.61 -52.92,0 l -155.76,155.77 c -14.62,14.61 -14.62,38.31 0,52.92 z m 348.81,348.81 247.07,247.07 c 14.61,14.62 38.3,14.62 52.92,0 l 155.76,-155.77 c 14.62,-14.61 14.62,-38.3 0,-52.92 L 4524.68,6297.2 c -14.62,-14.62 -38.31,-14.62 -52.92,0 l -155.77,155.76 c -14.61,14.62 -14.61,38.31 0,52.92 z m 348.81,348.82 247.07,247.07 c 14.62,14.61 38.31,14.61 52.92,0 L 5120.56,6946 c 14.61,-14.61 14.61,-38.31 0,-52.92 l -247.07,-247.07 c -14.61,-14.62 -38.31,-14.62 -52.92,0 l -155.77,155.77 c -14.61,14.61 -14.61,38.3 0,52.92 z m 348.82,348.81 247.07,247.07 c 14.61,14.62 38.3,14.62 52.92,0 l 155.76,-155.77 c 14.62,-14.61 14.62,-38.31 0,-52.92 L 5222.3,6994.82 c -14.61,-14.61 -38.3,-14.61 -52.91,0 l -155.77,155.77 c -14.61,14.61 -14.61,38.3 0,52.92 z m 552.16,-5.11 155.77,-155.76 c 14.62,-14.62 14.62,-38.31 0,-52.93 l -247.07,-247.07 c -14.61,-14.61 -38.3,-14.61 -52.92,0 l -155.76,155.78 c -14.62,14.61 -14.62,38.3 0,52.91 l 247.07,247.07 c 14.6,14.62 38.3,14.62 52.91,0 z m 252.17,-252.17 155.77,-155.77 c 14.61,-14.62 14.61,-38.31 0,-52.92 l -247.07,-247.07 c -14.6,-14.61 -38.3,-14.61 -52.92,0 l -155.76,155.77 c -14.62,14.62 -14.62,38.31 0,52.92 l 247.07,247.07 c 14.61,14.61 38.3,14.61 52.91,0 z m 252.18,-252.18 155.77,-155.77 c 14.61,-14.61 14.61,-38.3 0,-52.91 L 5978.83,6238.3 c -14.61,-14.62 -38.31,-14.62 -52.92,0 l -155.77,155.76 c -14.61,14.62 -14.61,38.31 0,52.92 l 247.07,247.07 c 14.62,14.61 38.31,14.61 52.92,0 z m -193.05,-557.5 -247.07,-247.07 c -14.61,-14.61 -38.3,-14.61 -52.91,0 l -155.77,155.77 c -14.61,14.61 -14.61,38.3 0,52.92 l 247.07,247.07 c 14.61,14.61 38.3,14.61 52.92,0 l 155.76,-155.77 c 14.62,-14.61 14.62,-38.31 0,-52.92 z m -348.8,-348.81 -247.07,-247.07 c -14.61,-14.62 -38.32,-14.62 -52.92,0 l -155.78,155.77 c -14.61,14.61 -14.61,38.3 0,52.92 l 247.07,247.07 c 14.62,14.6 38.31,14.6 52.92,0 l 155.78,-155.78 c 14.61,-14.61 14.61,-38.3 0,-52.91 z m -348.82,-348.82 -247.07,-247.06 c -14.61,-14.62 -38.3,-14.62 -52.91,0 l -155.77,155.76 c -14.61,14.62 -14.61,38.31 0,52.92 l 247.07,247.07 c 14.61,14.61 38.3,14.61 52.92,0 l 155.76,-155.77 c 14.62,-14.61 14.62,-38.31 0,-52.92 z m -552.16,5.11 -155.77,155.77 c -14.62,14.61 -14.62,38.31 0,52.91 l 247.07,247.07 c 14.61,14.62 38.3,14.62 52.92,0 l 155.77,-155.76 c 14.61,-14.62 14.61,-38.31 0,-52.92 l -247.07,-247.07 c -14.62,-14.61 -38.31,-14.61 -52.92,0 z m 396.62,900.98 c 14.62,-14.61 14.62,-38.31 0,-52.92 l -247.07,-247.07 c -14.61,-14.62 -38.3,-14.62 -52.92,0 l -155.76,155.77 c -14.62,14.61 -14.62,38.3 0,52.92 l 247.07,247.07 c 14.61,14.61 38.3,14.61 52.91,0 z m 348.82,295.89 -247.07,-247.07 c -14.62,-14.61 -38.31,-14.61 -52.92,0 l -155.77,155.77 c -14.61,14.61 -14.61,38.31 0,52.92 l 247.07,247.07 c 14.62,14.61 38.31,14.61 52.92,0 l 155.77,-155.77 c 14.61,-14.61 14.61,-38.3 0,-52.92 z m -96.64,-600.99 -247.07,-247.07 c -14.61,-14.61 -38.3,-14.61 -52.92,0 l -155.76,155.77 c -14.62,14.62 -14.62,38.31 0,52.92 l 247.07,247.07 c 14.61,14.61 38.3,14.61 52.91,0 l 155.77,-155.77 c 14.61,-14.61 14.61,-38.3 0,-52.92 z m -106.95,257.52 c -14.6,14.61 -14.6,38.3 0,52.92 l 247.07,247.06 c 14.61,14.62 38.31,14.62 52.92,0 l 155.78,-155.76 c 14.61,-14.62 14.61,-38.31 0,-52.92 l -247.07,-247.08 c -14.62,-14.6 -38.31,-14.6 -52.92,0 z m -794.03,-601.22 -155.76,155.77 c -14.62,14.61 -14.62,38.3 0,52.91 l 247.06,247.07 c 14.61,14.62 38.31,14.62 52.92,0 l 155.77,-155.76 c 14.61,-14.62 14.61,-38.31 0,-52.92 l -247.07,-247.07 c -14.61,-14.62 -38.3,-14.62 -52.92,0 z m 417.39,-591.31 c 62.54,-62.54 164.3,-62.54 226.84,0 l 1293.51,1293.5 c 62.53,62.54 62.53,164.3 0,226.84 l -912.3,912.3 c -62.54,62.53 -164.3,62.54 -226.84,0 L 3880.22,6244.03 c -62.54,-62.54 -62.54,-164.3 0,-226.84 l 912.29,-912.29"
        id="path46" /><path
        style="fill:#100f0d;fill-opacity:1;fill-rule:nonzero;stroke:none" d="m 4658.32,4187.34 436.56,436.56 c 25.31,25.31 25.31,66.36 0,91.68 L 3630.46,6179.99 c -25.31,25.32 -66.36,25.32 -91.68,0 l -436.55,-436.55 c -25.32,-25.32 -25.32,-66.37 0,-91.69 L 4566.64,4187.34 c 25.32,-25.31 66.36,-25.31 91.68,0"
        id="path48" /><path
        style="fill:#100f0d;fill-opacity:1;fill-rule:nonzero;stroke:none" d="m 3114.7,5842.88 324.65,324.63 -35.23,35.22 c -30.41,30.42 -79.73,30.42 -110.14,0 l -214.5,-214.49 c -30.41,-30.41 -30.41,-79.73 0,-110.14 l 35.22,-35.22"
        id="path50" /><path
        style="fill:#100f0d;fill-opacity:1;fill-rule:nonzero;stroke:none" d="m 5692.44,3470.86 0.1,-2.07 c 0.21,-2.1 0.58,-4.17 0.9,-6.25 0.23,-1.45 0.37,-2.92 0.66,-4.36 0.24,-1.26 0.62,-2.49 0.9,-3.73 0.52,-2.24 1.01,-4.48 1.66,-6.69 l 0.46,-1.31 c 4.1,-13.13 10.65,-25.67 19.76,-36.83 2.34,-2.88 4.86,-5.67 7.56,-8.36 43.21,-43.22 113.3,-43.22 156.52,0 43.21,43.22 43.21,113.31 0,156.53 -2.69,2.68 -5.49,5.2 -8.37,7.56 -11.11,9.07 -23.59,15.59 -36.67,19.69 l -1.47,0.51 c -2.2,0.67 -4.45,1.14 -6.68,1.66 -1.24,0.29 -2.47,0.67 -3.72,0.91 -1.46,0.28 -2.92,0.43 -4.39,0.65 -2.08,0.33 -4.15,0.7 -6.24,0.9 l -2.02,0.11 c -2.72,0.22 -5.45,0.42 -8.18,0.44 l -0.51,-0.02 -0.51,-0.03 c -3.33,-0.02 -6.67,-0.16 -9.99,-0.47 -1.36,-0.13 -2.69,-0.4 -4.05,-0.57 -2.14,-0.29 -4.3,-0.52 -6.43,-0.93 -2,-0.38 -3.97,-0.94 -5.96,-1.44 -1.47,-0.37 -2.95,-0.65 -4.41,-1.07 -2.25,-0.67 -4.46,-1.52 -6.68,-2.33 -1.15,-0.42 -2.34,-0.75 -3.48,-1.22 -2.29,-0.91 -4.51,-2.02 -6.74,-3.1 -1.04,-0.5 -2.1,-0.92 -3.13,-1.46 -2.23,-1.16 -4.38,-2.52 -6.54,-3.84 -0.97,-0.6 -1.97,-1.11 -2.93,-1.73 -2.18,-1.44 -4.27,-3.07 -6.37,-4.67 l -2.62,-1.94 c -2.91,-2.37 -5.73,-4.91 -8.43,-7.61 -2.72,-2.72 -5.26,-5.53 -7.63,-8.44 -0.72,-0.89 -1.33,-1.85 -2.02,-2.76 -1.57,-2.05 -3.16,-4.1 -4.57,-6.23 -0.67,-1.01 -1.21,-2.08 -1.85,-3.12 -1.29,-2.1 -2.6,-4.19 -3.74,-6.36 -0.54,-1.03 -0.96,-2.12 -1.47,-3.17 -1.08,-2.22 -2.17,-4.41 -3.09,-6.68 -0.48,-1.18 -0.82,-2.39 -1.25,-3.58 -0.8,-2.19 -1.63,-4.37 -2.28,-6.6 -0.44,-1.47 -0.73,-2.97 -1.1,-4.46 -0.48,-1.96 -1.04,-3.91 -1.42,-5.91 -0.41,-2.12 -0.64,-4.26 -0.92,-6.39 -0.19,-1.37 -0.45,-2.72 -0.58,-4.09 -0.32,-3.32 -0.46,-6.65 -0.47,-9.98 l -0.03,-0.51 -0.02,-0.51 c 0.02,-2.72 0.22,-5.42 0.44,-8.14"
        id="path52" /><path
        style="fill:#100f0d;fill-opacity:1;fill-rule:nonzero;stroke:none" d="M 4920.08,4362.14 C 4590.69,4032.75 4497.21,3563.78 4650.32,3188.02 L 6094.19,4631.89 C 5718.43,4785 5249.47,4691.53 4920.08,4362.14"
        id="path54" /><path
        style="fill:#100f0d;fill-opacity:1;fill-rule:nonzero;stroke:none" d="m 5313.2,3763.95 322.54,-242.63 c 7.28,29.32 22.35,57.07 45.21,79.94 22.4,22.41 49.88,37.86 79.86,45.33 l -242.54,322.43 -205.07,-205.07"
        id="path56" /><path
        style="fill:#100f0d;fill-opacity:1;fill-rule:nonzero;stroke:none" d="m 6255.95,3877.57 c -0.01,-224.08 -87.27,-434.75 -245.72,-593.22 -161.42,-161.42 -376.05,-248.65 -604.36,-245.65 -56.84,0.75 -103.53,-44.73 -104.28,-101.58 -0.09,-6.78 0.47,-13.42 1.65,-19.87 8.62,-47.47 49.87,-83.76 99.93,-84.41 284.32,-3.74 551.61,104.9 752.64,305.92 197.34,197.35 306.03,459.73 306.02,738.82 0.02,56.83 -46.08,102.95 -102.94,102.94 -56.85,0 -102.94,-46.08 -102.94,-102.95"
        id="path58" /><path
        style="fill:#100f0d;fill-opacity:1;fill-rule:nonzero;stroke:none" d="m 5399.73,2575.52 c -56.84,0.74 -103.53,-44.73 -104.29,-101.58 -0.08,-6.79 0.48,-13.43 1.65,-19.86 8.63,-47.48 49.88,-83.77 99.94,-84.43 410.37,-5.41 796.17,151.42 1086.32,441.57 284.85,284.83 441.71,663.54 441.71,1066.35 0.02,56.82 -46.08,102.95 -102.94,102.94 -56.85,0 -102.95,-46.09 -102.95,-102.95 0,-347.81 -135.45,-674.8 -381.4,-920.77 -250.54,-250.53 -583.67,-385.94 -938.04,-381.27"
        id="path60" /><path
        style="fill:#100f0d;fill-opacity:1;fill-rule:nonzero;stroke:none" d="m 7294.84,3980.51 c -56.86,0 -102.95,-46.09 -102.95,-102.95 0,-474.09 -184.63,-919.8 -519.86,-1255.03 -341.5,-341.49 -795.56,-526.04 -1278.56,-519.68 -56.84,0.75 -103.54,-44.74 -104.29,-101.59 -0.08,-6.78 0.48,-13.42 1.64,-19.86 8.64,-47.48 49.88,-83.76 99.94,-84.42 539.01,-7.11 1045.74,198.86 1426.85,579.98 374.12,374.11 580.17,871.51 580.17,1400.61 0.03,56.83 -46.09,102.95 -102.94,102.94"
        id="path62" /></g></g></svg>